<?xml version="1.0" encoding="UTF-8"?>
<svg id="Layer_1" data-name="Layer 1" xmlns="http://www.w3.org/2000/svg" viewBox="0 0 512 512">
  <defs>
    <style>
      .cls-1, .cls-2 {
        fill: #1d497f;
      }

      .cls-1, .cls-3 {
        stroke: #fff;
        stroke-miterlimit: 10;
      }

      .cls-4 {
        fill: #ef4438;
      }

      .cls-5 {
        fill: #7e5749;
      }

      .cls-3 {
        fill: #b72025;
      }

      .cls-6 {
        fill: #984345;
      }

      .cls-7 {
        fill: #984446;
      }

      .cls-8 {
        fill: #7e5648;
      }

      .cls-9 {
        fill: #1c4a7f;
      }

      .cls-10 {
        fill: #478fcc;
      }

      .cls-11 {
        fill: #a8897e;
      }
    </style>
  </defs>
  <rect class="cls-8" width="512" height="512" rx="21.38" ry="21.38"/>
  <rect class="cls-11" x="26.67" y="26.67" width="458.67" height="458.67" rx="21.38" ry="21.38"/>
  <path class="cls-5" d="M264.88,40.72h185.46c11.55,0,20.94,9.38,20.94,20.94v185.46h-206.4V40.72h0Z"/>
  <path class="cls-10" d="M264.88,264.88h206.4v185.46c0,11.55-9.38,20.94-20.94,20.94h-185.46v-206.4h0Z"/>
  <path class="cls-10" d="M40.72,264.88h185.46c11.55,0,20.94,9.38,20.94,20.94v185.46H40.72v-206.4h0Z" transform="translate(287.85 736.15) rotate(180)"/>
  <path class="cls-4" d="M40.72,40.72h206.4v185.46c0,11.55-9.38,20.94-20.94,20.94H40.72V40.72h0Z" transform="translate(287.85 287.85) rotate(180)"/>
  <circle class="cls-3" cx="145.92" cy="141.93" r="71.91"/>
  <circle class="cls-1" cx="366.94" cy="366.08" r="71.91"/>
  <rect class="cls-7" x="40.72" y="247.12" width="206.4" height="17.75"/>
  <rect class="cls-6" x="152.8" y="135.05" width="206.4" height="17.75" transform="translate(399.92 -112.08) rotate(90)"/>
  <rect class="cls-2" x="264.88" y="247.12" width="206.4" height="17.75"/>
  <polygon class="cls-7" points="247.12 264.88 247.12 247.12 264.88 247.12 247.12 264.88"/>
  <polygon class="cls-9" points="264.88 264.88 256 256 264.88 247.12 264.88 264.88"/>
</svg>